<?xml version="1.0" encoding="UTF-8" standalone="no"?>
<!DOCTYPE svg PUBLIC "-//W3C//DTD SVG 1.1//EN" "http://www.w3.org/Graphics/SVG/1.1/DTD/svg11.dtd">
<svg width="100%" height="100%" viewBox="0 0 360 360" version="1.1" xmlns="http://www.w3.org/2000/svg" xmlns:xlink="http://www.w3.org/1999/xlink" xml:space="preserve" xmlns:serif="http://www.serif.com/" style="fill-rule:evenodd;clip-rule:evenodd;stroke-linecap:round;stroke-linejoin:round;stroke-miterlimit:1.5;">
    <g transform="matrix(0.941761,0,0,0.884561,9.91419,35.581)">
        <rect x="-10.527" y="-40.224" width="382.262" height="406.981" style="fill:rgb(233,233,233);"/>
    </g>
    <path d="M250.257,222.086L250.257,83.65C250.257,81.98 249.505,80.399 248.21,79.346C246.915,78.292 245.215,77.877 243.58,78.216C223.046,82.479 161.189,95.319 144.091,98.868C141.516,99.403 139.67,101.671 139.67,104.302C139.67,123.795 139.67,200.675 139.67,221.33C139.669,224.248 137.41,226.667 134.499,226.866C130.56,227.313 124.509,228.419 116.808,230.947C102.546,235.63 91.621,245.75 94.57,259.3C97.52,272.85 109.405,278.31 122.495,276.73C135.586,275.15 150.251,266.311 150.792,249.749C151.259,235.436 150.822,167.192 150.695,148.932C150.678,146.308 152.501,144.031 155.066,143.474C169.481,140.343 215.326,130.386 232.662,126.621C234.302,126.264 236.015,126.67 237.322,127.723C238.629,128.777 239.388,130.365 239.388,132.043C239.388,149.116 239.388,192.036 239.388,192.036L239.189,201.529C239.128,204.404 236.88,206.757 234.011,206.948C230.074,207.39 223.987,208.492 216.221,211.042C201.96,215.724 191.034,225.845 193.984,239.395C196.933,252.945 208.818,258.405 221.909,256.825C234.999,255.245 249.665,246.405 250.205,229.844L250.257,222.086Z" style="fill:rgb(198,198,198);stroke:black;stroke-opacity:0;stroke-width:1px;"/>
</svg>
