<?xml version="1.0" encoding="UTF-8" standalone="no"?>
<!DOCTYPE svg PUBLIC "-//W3C//DTD SVG 1.1//EN" "http://www.w3.org/Graphics/SVG/1.1/DTD/svg11.dtd">
<svg width="100%" height="100%" viewBox="40 40 280 280" version="1.1" xmlns="http://www.w3.org/2000/svg" xmlns:xlink="http://www.w3.org/1999/xlink" xml:space="preserve" xmlns:serif="http://www.serif.com/" style="fill-rule:evenodd;clip-rule:evenodd;stroke-linejoin:round;stroke-miterlimit:2;">
    <g transform="matrix(6.6979,0,0,6.6979,-1510.26,-1216.98)">
        <path d="M249.827,193.225C249.827,191.859 248.718,190.75 247.352,190.75L242.402,190.75C241.036,190.75 239.927,191.859 239.927,193.225L239.927,223.915C239.927,225.281 241.036,226.39 242.402,226.39L247.352,226.39C248.718,226.39 249.827,225.281 249.827,223.915L249.827,193.225Z" style="fill:white;"/>
        <g transform="matrix(1,0,0,1,14.96,0)">
            <path d="M249.827,193.225C249.827,191.859 248.718,190.75 247.352,190.75L242.402,190.75C241.036,190.75 239.927,191.859 239.927,193.225L239.927,223.915C239.927,225.281 241.036,226.39 242.402,226.39L247.352,226.39C248.718,226.39 249.827,225.281 249.827,223.915L249.827,193.225Z" style="fill:white;"/>
        </g>
    </g>
</svg>
