<?xml version="1.0" encoding="UTF-8" standalone="no"?>
<!DOCTYPE svg PUBLIC "-//W3C//DTD SVG 1.1//EN" "http://www.w3.org/Graphics/SVG/1.1/DTD/svg11.dtd">
<svg width="100%" height="100%" viewBox="50 50 260 260" version="1.1" xmlns="http://www.w3.org/2000/svg" xmlns:xlink="http://www.w3.org/1999/xlink" xml:space="preserve" xmlns:serif="http://www.serif.com/" style="fill-rule:evenodd;clip-rule:evenodd;stroke-linejoin:round;stroke-miterlimit:2;">
    <g transform="matrix(4.95197,0,0,4.95197,-728.13,-852.052)">
        <path d="M183.458,207.132L202.457,195.963C203.104,195.582 203.905,195.577 204.557,195.95C205.209,196.323 205.611,197.016 205.611,197.767C205.611,203.257 205.611,213.567 205.611,219.058C205.611,219.808 205.209,220.502 204.557,220.874C203.905,221.247 203.104,221.242 202.457,220.862L183.458,209.692L183.458,219.058C183.458,219.808 183.056,220.502 182.404,220.874C181.752,221.247 180.951,221.242 180.304,220.862C175.61,218.102 166.841,212.947 162.197,210.217C161.557,209.841 161.165,209.154 161.165,208.412C161.165,207.67 161.557,206.984 162.197,206.608C166.841,203.878 175.61,198.722 180.304,195.963C180.951,195.582 181.752,195.577 182.404,195.95C183.056,196.323 183.458,197.016 183.458,197.767L183.458,207.132Z" style="fill:white;"/>
    </g>
</svg>
